<svg width="68" height="80" viewBox="0 0 68 80" fill="none" xmlns="http://www.w3.org/2000/svg">
<g opacity="0.8">
<path d="M27.2365 39.3587H41.3786" stroke="#1B1B1B" stroke-linecap="round" stroke-linejoin="round"/>
<path d="M34.3076 32.2876L41.3786 39.3587L34.3076 46.4297" stroke="#1B1B1B" stroke-linecap="round" stroke-linejoin="round"/>
</g>
<path opacity="0.8" d="M49.787 30.3278C54.5487 38.5753 57.0205 47.0752 57.1879 54.1357C57.3558 61.2176 55.2119 66.722 50.9081 69.2068C46.6043 71.6916 40.7654 70.7961 34.7162 67.1097C28.6853 63.4345 22.5601 57.0439 17.7984 48.7964C13.0367 40.5489 10.5649 32.049 10.3975 24.9885C10.2296 17.9065 12.3735 12.4021 16.6773 9.91733C20.9811 7.43252 26.82 8.32805 32.8692 12.0144C38.9001 15.6897 45.0253 22.0803 49.787 30.3278Z" stroke="#1B1B1B"/>
</svg>
