<svg width="36" height="33" viewBox="0 0 36 33" fill="none" xmlns="http://www.w3.org/2000/svg">
<path d="M7.584 2.8C8.71467 2.8 9.65867 3.168 10.416 3.904C11.1733 4.62933 11.552 5.54667 11.552 6.656C11.552 7.75467 11.1733 8.672 10.416 9.408C9.65867 10.1333 8.71467 10.496 7.584 10.496H5.712V14H3.28V2.8H7.584ZM7.488 8.256C7.968 8.256 8.352 8.10667 8.64 7.808C8.93867 7.50933 9.088 7.12533 9.088 6.656C9.088 6.18667 8.93867 5.80267 8.64 5.504C8.352 5.19467 7.968 5.04 7.488 5.04H5.712V8.256H7.488ZM18.5451 14.24C16.8385 14.24 15.4145 13.6853 14.2731 12.576C13.1425 11.456 12.5771 10.064 12.5771 8.4C12.5771 6.736 13.1425 5.34933 14.2731 4.24C15.4145 3.12 16.8385 2.56 18.5451 2.56C19.6651 2.56 20.6785 2.816 21.5851 3.328C22.5025 3.82933 23.2171 4.528 23.7291 5.424C24.2411 6.30933 24.4971 7.30133 24.4971 8.4C24.4971 10.0747 23.9318 11.4667 22.8011 12.576C21.6705 13.6853 20.2518 14.24 18.5451 14.24ZM18.5451 11.952C19.2065 11.952 19.8038 11.8027 20.3371 11.504C20.8705 11.1947 21.2865 10.768 21.5851 10.224C21.8945 9.68 22.0491 9.072 22.0491 8.4C22.0491 7.38667 21.7131 6.544 21.0411 5.872C20.3798 5.18933 19.5478 4.848 18.5451 4.848C17.5531 4.848 16.7158 5.18933 16.0331 5.872C15.3611 6.544 15.0251 7.38667 15.0251 8.4C15.0251 9.41333 15.3611 10.2613 16.0331 10.944C16.7158 11.616 17.5531 11.952 18.5451 11.952ZM28.837 11.744H33.301V14H26.405V2.8H33.125V5.04H28.837V7.248H32.709V9.44H28.837V11.744Z" fill="#1B1B1B"/>
<path opacity="0.8" d="M3.71 23.48C4.51667 23.48 5.18 23.7467 5.7 24.28C6.22667 24.8133 6.49 25.4867 6.49 26.3C6.49 27.1067 6.22667 27.78 5.7 28.32C5.18 28.8533 4.51667 29.12 3.71 29.12C2.86333 29.12 2.17 28.8233 1.63 28.23L1.52 29H0.86V21.67H1.71V24.28C2.23667 23.7467 2.90333 23.48 3.71 23.48ZM3.64 28.3C4.02 28.3 4.36 28.2133 4.66 28.04C4.96 27.8667 5.19333 27.63 5.36 27.33C5.53333 27.0233 5.62 26.68 5.62 26.3C5.62 25.7267 5.43333 25.25 5.06 24.87C4.68667 24.49 4.21333 24.3 3.64 24.3C3.07333 24.3 2.6 24.4933 2.22 24.88C1.84 25.26 1.65 25.7333 1.65 26.3C1.65 26.52 1.68 26.7333 1.74 26.94C1.80667 27.1467 1.9 27.3333 2.02 27.5C2.14 27.66 2.28 27.8 2.44 27.92C2.60667 28.04 2.79 28.1333 2.99 28.2C3.19667 28.2667 3.41333 28.3 3.64 28.3ZM10.0838 29.12C9.35716 29.12 8.77383 28.9033 8.33383 28.47C7.90049 28.03 7.68383 27.4467 7.68383 26.72V23.6H8.53383V26.58C8.53383 26.9333 8.59716 27.24 8.72383 27.5C8.85049 27.7533 9.03049 27.95 9.26383 28.09C9.49716 28.23 9.77049 28.3 10.0838 28.3C10.5638 28.3 10.9405 28.1467 11.2138 27.84C11.4872 27.5333 11.6238 27.1133 11.6238 26.58V23.6H12.4738V26.72C12.4738 27.4467 12.2572 28.03 11.8238 28.47C11.3905 28.9033 10.8105 29.12 10.0838 29.12ZM14.0622 22.66V21.69H14.9822V22.66H14.0622ZM14.1022 29V23.6H14.9522V29H14.1022ZM16.6608 29V21.67H17.5108V29H16.6608ZM23.5694 21.67H24.4194V29H23.7694L23.6494 28.23C23.116 28.8233 22.426 29.12 21.5794 29.12C20.766 29.12 20.096 28.8533 19.5694 28.32C19.0494 27.78 18.7894 27.1067 18.7894 26.3C18.7894 25.4867 19.0494 24.8133 19.5694 24.28C20.096 23.7467 20.766 23.48 21.5794 23.48C22.3794 23.48 23.0427 23.7467 23.5694 24.28V21.67ZM20.2194 27.73C20.5927 28.11 21.0627 28.3 21.6294 28.3C22.2027 28.3 22.6794 28.11 23.0594 27.73C23.4394 27.3433 23.6294 26.8667 23.6294 26.3C23.6294 25.7267 23.4394 25.25 23.0594 24.87C22.686 24.49 22.2127 24.3 21.6394 24.3C21.3594 24.3 21.096 24.3533 20.8494 24.46C20.6027 24.56 20.3927 24.6967 20.2194 24.87C20.046 25.0433 19.9094 25.2567 19.8094 25.51C19.7094 25.7567 19.6594 26.02 19.6594 26.3C19.6594 26.8733 19.846 27.35 20.2194 27.73ZM31.1932 26.32C31.1932 26.3933 31.1865 26.4967 31.1732 26.63H26.5632C26.6299 27.13 26.8365 27.5333 27.1832 27.84C27.5299 28.14 27.9565 28.29 28.4632 28.29C28.8365 28.29 29.1665 28.21 29.4532 28.05C29.7465 27.8833 29.9799 27.65 30.1532 27.35H31.0432C30.8165 27.91 30.4765 28.3467 30.0232 28.66C29.5699 28.9667 29.0499 29.12 28.4632 29.12C27.6832 29.12 27.0299 28.85 26.5032 28.31C25.9765 27.77 25.7132 27.1 25.7132 26.3C25.7132 25.4933 25.9765 24.8233 26.5032 24.29C27.0299 23.75 27.6832 23.48 28.4632 23.48C29.2699 23.48 29.9265 23.7533 30.4332 24.3C30.9399 24.8467 31.1932 25.52 31.1932 26.32ZM28.4632 24.29C28.1432 24.29 27.8499 24.3533 27.5832 24.48C27.3232 24.6067 27.1065 24.79 26.9332 25.03C26.7599 25.2633 26.6432 25.5333 26.5832 25.84H30.3332C30.2732 25.5267 30.1565 25.2533 29.9832 25.02C29.8099 24.78 29.5932 24.6 29.3332 24.48C29.0732 24.3533 28.7832 24.29 28.4632 24.29ZM34.9216 23.57H35.4016V24.38H34.8516C34.3649 24.38 33.9849 24.53 33.7116 24.83C33.4449 25.1233 33.3116 25.5367 33.3116 26.07V29H32.4616V23.6H33.0616L33.2016 24.42C33.5949 23.8533 34.1682 23.57 34.9216 23.57Z" fill="#1B1B1B"/>
</svg>
